# xmcd CD database file
#
# Track frame offsets:
#	150
#	14526
#	34057
#	49481
#	64262
#	80718
#	98050
#	113386
#	127988
#	142385
#	155118
#	171091
#	186191
#	199655
#	216156
#	232415
#	246525
#	259397
#	272727
#	285354
#
# Disc length: 3994 seconds
#
# Revision: 0
# Processed by: cddbd v1.5.2PL0 Copyright (c) Steve Scherf et al.
# Submitted via: CDex 1.70beta2
#
DISCID=3b0f9814
DTITLE=Various Artist - NU COUNTRY TRAXX 184
DYEAR=2014
DGENRE=Country
TTITLE0=Buzz Back Girl - Jerrod Niemann
TTITLE1=Roller Coaster - Luke Bryan
TTITLE2=Home Sweet Home - Justin Moore ft. Vince Neil
TTITLE3=A Guy Walks In To A Bar - Tyler Farr
TTITLE4=Dirt - Florida Georgia Line
TTITLE5=Mean To Me - Brett Eldredge
TTITLE6=Love You Like That - Canaan Smith
TTITLE7=Can't Stop Loving You - Sara Evans duet with Isaac Slade
TTITLE8=Wasn't Gonna Drink Tonight - American Young
TTITLE9=Lights On - Lenny Cooper
TTITLE10=Take It On Back - Chase Bryant 
TTITLE11=Good On You - Native Run
TTITLE12=Live A Little - Dean Alexander
TTITLE13=Girl In A Country Song - Maddie and Tae
TTITLE14=Lie A Little Better - Lucy Hale
TTITLE15=Party Like You - The Cadillac Three
TTITLE16=Trailer Hitch - Kristian Bush
TTITLE17=Backwood Tobacco - Daniel Lee Band 
TTITLE18=Just Because - Chad Brownlee
TTITLE19=Girl In Your Truck Song - Maggie Rose
EXTD=YEAR: 2014
EXTT0=
EXTT1=
EXTT2=
EXTT3=
EXTT4=
EXTT5=
EXTT6=
EXTT7=
EXTT8=
EXTT9=
EXTT10=
EXTT11=
EXTT12=
EXTT13=
EXTT14=
EXTT15=
EXTT16=
EXTT17=
EXTT18=
EXTT19=
PLAYORDER=
